<svg xmlns="http://www.w3.org/2000/svg" width="26.38" height="21.44" viewBox="0 0 26.38 21.44">
  <defs>
    <style>
      .cls-1 {
        fill: #1a1a1a;
        fill-rule: evenodd;
      }
    </style>
  </defs>
  <path id="TWTR" class="cls-1" d="M1578.57,3404.55a15.8,15.8,0,0,0,5.41-.91,13.932,13.932,0,0,0,4.32-2.44,16.571,16.571,0,0,0,3.09-3.53,15.633,15.633,0,0,0,2.57-8.5c0-.31-0.01-0.55-0.02-0.7a11.45,11.45,0,0,0,2.71-2.8,10.6,10.6,0,0,1-3.11.84,5.325,5.325,0,0,0,2.38-2.98,10.72,10.72,0,0,1-3.44,1.3,5.236,5.236,0,0,0-3.95-1.7,5.394,5.394,0,0,0-5.4,5.4,5.873,5.873,0,0,0,.13,1.24,15.036,15.036,0,0,1-6.22-1.66,15.228,15.228,0,0,1-4.93-4,5.329,5.329,0,0,0-.74,2.73,5.214,5.214,0,0,0,.66,2.58,5.418,5.418,0,0,0,1.75,1.93,5.492,5.492,0,0,1-2.44-.69v0.07a5.24,5.24,0,0,0,1.23,3.44,5.325,5.325,0,0,0,3.11,1.86,5.353,5.353,0,0,1-1.43.19,6.409,6.409,0,0,1-1.02-.09,5.423,5.423,0,0,0,5.06,3.75,10.62,10.62,0,0,1-6.72,2.31,12.775,12.775,0,0,1-1.3-.06,14.992,14.992,0,0,0,8.3,2.42h0Z" transform="translate(-1570.28 -3383.12)"/>
</svg>
