<svg xmlns="http://www.w3.org/2000/svg" width="25.72" height="25.72" viewBox="0 0 25.72 25.72">
  <defs>
    <style>
      .cls-1 {
        fill: #1a1a1a;
        fill-rule: evenodd;
      }
    </style>
  </defs>
  <path id="IG" class="cls-1" d="M1452.5,3405.73a3.22,3.22,0,0,0,2.33.97h19.12a3.329,3.329,0,0,0,3.3-3.3v-19.12a3.329,3.329,0,0,0-3.3-3.3h-19.12a3.22,3.22,0,0,0-2.33.97,3.18,3.18,0,0,0-.97,2.33v19.12A3.18,3.18,0,0,0,1452.5,3405.73Zm1.89-13.86h2.36a7.261,7.261,0,0,0-.33,2.19,7.351,7.351,0,0,0,2.34,5.48,7.861,7.861,0,0,0,5.65,2.27,8.019,8.019,0,0,0,4.01-1.04,7.828,7.828,0,0,0,2.92-2.82,7.468,7.468,0,0,0,1.07-3.89,6.967,6.967,0,0,0-.34-2.19h2.26v10.84a1.007,1.007,0,0,1-1.02,1.02h-17.89a0.95,0.95,0,0,1-.73-0.29,0.973,0.973,0,0,1-.3-0.73v-10.84Zm10.02-3.09a5.058,5.058,0,0,1,3.65,1.47,4.882,4.882,0,0,1,0,7.08,5.266,5.266,0,0,1-7.3,0,4.9,4.9,0,0,1,0-7.08,5.058,5.058,0,0,1,3.65-1.47h0Zm4.7-3.78a1.134,1.134,0,0,1,.33-0.81,1.11,1.11,0,0,1,.82-0.34h2.92a1.11,1.11,0,0,1,.82.34,1.134,1.134,0,0,1,.33.81v2.76a1.144,1.144,0,0,1-1.15,1.16h-2.92a1.144,1.144,0,0,1-1.15-1.16V3385Z" transform="translate(-1451.53 -3380.97)"/>
</svg>
