<svg width="0" height="0" class="hidden">
  <symbol xmlns="http://www.w3.org/2000/svg" viewBox="0 0 14.47 27.85" id="icon-FB">
    <path d="M4.27 15.15v12.71h5.12V15.15h4.26l.65-4.95H9.39V7.03a2.771 2.771 0 0 1 .51-1.81 2.455 2.455 0 0 1 1.94-.6h2.63V.2a28.485 28.485 0 0 0-3.82-.2 6.3 6.3 0 0 0-4.64 1.72 6.466 6.466 0 0 0-1.74 4.83v3.65H0v4.95h4.27z"  fill-rule="evenodd"></path>
  </symbol>
  <symbol xmlns="http://www.w3.org/2000/svg" viewBox="0 0 25.72 25.72" id="icon-inst">
    <path d="M.97 24.76a3.22 3.22 0 0 0 2.33.97h19.12a3.329 3.329 0 0 0 3.3-3.3V3.31a3.329 3.329 0 0 0-3.3-3.3H3.3A3.22 3.22 0 0 0 .97.98 3.18 3.18 0 0 0 0 3.31v19.12a3.18 3.18 0 0 0 .97 2.33zM2.86 10.9h2.36a7.261 7.261 0 0 0-.33 2.19 7.351 7.351 0 0 0 2.34 5.48 7.861 7.861 0 0 0 5.65 2.27 8.019 8.019 0 0 0 4.01-1.04 7.828 7.828 0 0 0 2.92-2.82 7.468 7.468 0 0 0 1.07-3.89 6.967 6.967 0 0 0-.34-2.19h2.26v10.84a1.007 1.007 0 0 1-1.02 1.02H3.89a.95.95 0 0 1-.73-.29.973.973 0 0 1-.3-.73V10.9zm10.02-3.09a5.058 5.058 0 0 1 3.65 1.47 4.882 4.882 0 0 1 0 7.08 5.266 5.266 0 0 1-7.3 0 4.9 4.9 0 0 1 0-7.08 5.058 5.058 0 0 1 3.65-1.47zm4.7-3.78a1.134 1.134 0 0 1 .33-.81 1.11 1.11 0 0 1 .82-.34h2.92a1.11 1.11 0 0 1 .82.34 1.134 1.134 0 0 1 .33.81v2.76a1.144 1.144 0 0 1-1.15 1.16h-2.92a1.144 1.144 0 0 1-1.15-1.16V4.03z"
       fill-rule="evenodd"></path>
  </symbol>
  <symbol xmlns="http://www.w3.org/2000/svg" viewBox="0 0 26.38 21.44" id="icon-TWTR">
    <path d="M8.29 21.43a15.8 15.8 0 0 0 5.41-.91 13.932 13.932 0 0 0 4.32-2.44 16.571 16.571 0 0 0 3.09-3.53 15.633 15.633 0 0 0 2.57-8.5c0-.31-.01-.55-.02-.7a11.45 11.45 0 0 0 2.71-2.8 10.6 10.6 0 0 1-3.11.84A5.325 5.325 0 0 0 25.64.41a10.72 10.72 0 0 1-3.44 1.3 5.236 5.236 0 0 0-3.95-1.7 5.394 5.394 0 0 0-5.4 5.4 5.873 5.873 0 0 0 .13 1.24 15.036 15.036 0 0 1-6.22-1.66 15.228 15.228 0 0 1-4.93-4 5.329 5.329 0 0 0-.74 2.73 5.214 5.214 0 0 0 .66 2.58A5.418 5.418 0 0 0 3.5 8.23a5.492 5.492 0 0 1-2.44-.69v.07a5.24 5.24 0 0 0 1.23 3.44 5.325 5.325 0 0 0 3.11 1.86 5.353 5.353 0 0 1-1.43.19 6.409 6.409 0 0 1-1.02-.09 5.423 5.423 0 0 0 5.06 3.75 10.62 10.62 0 0 1-6.72 2.31 12.775 12.775 0 0 1-1.3-.06 14.992 14.992 0 0 0 8.3 2.42z"
       fill-rule="evenodd"></path>
  </symbol>
</svg>